# File created by Blade
# Date/Time:  Wed Jan 21 18:34:41 2015
# Frame Rate: 120.000 fps
#------------------------------------------------------
:FULLY-SPECIFIED
:DEGREES
1512
root 2.677040 32.760665 -6.923256 42.607380 3.975712 1.704609
RightUpLeg -36.859577 -19.172902 8.787831
RightLeg -3.794940 -0.000000 0.000000
RightFoot -8.073274 -0.793683 22.748997
RightToeBase 21.747126 -0.000000 -0.000000
LeftUpLeg -38.602815 10.709355 -4.035146
LeftLeg 0.129208 -0.000000 -0.000000
LeftFoot -2.586708 -8.323635 -15.058092
LeftToeBase 3.300192 -0.000000 -0.000000
Spine -48.482360 0.718155 -3.534677
RightShoulder -35.606632 41.707529 -80.654712
RightArm 43.090630 -4.943900 14.513714
RightForeArm 6.681064 -0.000000 -0.412230
RightHand 9.393952 -0.000000 -0.465983
RightHandThumb1 -24.326973 -0.000000 -32.862282
LeftShoulder -17.426177 -22.145468 58.885057
LeftArm 49.246981 -29.113453 -10.315481
LeftForeArm 21.963263 0.000000 2.872651
LeftHand -23.866585 0.000000 -2.867876
LeftHandThumb1 -26.253704 0.000000 33.147579
Head 10.751967 -4.041788 4.281717
1513
root 2.678349 32.762054 -6.919232 42.561635 4.013751 1.710665
RightUpLeg -36.805688 -19.187296 8.766365
RightLeg -3.775368 -0.000000 0.000000
RightFoot -8.105204 -0.814073 22.792184
RightToeBase 21.767193 -0.000000 -0.000000
LeftUpLeg -38.558059 10.687494 -4.013272
LeftLeg 0.140326 -0.000000 -0.000000
LeftFoot -2.579801 -8.326756 -15.068943
LeftToeBase 3.342328 -0.000000 -0.000000
Spine -48.512533 0.734284 -3.517305
RightShoulder -36.000512 42.185969 -81.324846
RightArm 43.647894 -5.167269 14.720749
RightForeArm 6.666229 -0.000000 -0.279183
RightHand 9.247039 -0.000000 -0.483953
RightHandThumb1 -24.326973 -0.000000 -32.862282
LeftShoulder -17.347024 -22.281913 58.895523
LeftArm 49.842543 -29.365010 -10.237110
LeftForeArm 22.040648 -0.000000 3.028492
LeftHand -24.030960 -0.000000 -2.587820
LeftHandThumb1 -26.253704 0.000000 33.147579
Head 10.959911 -4.047200 4.196013
1514
root 2.680497 32.762322 -6.915397 42.527448 4.047121 1.724763
RightUpLeg -36.765960 -19.210268 8.750566
RightLeg -3.763952 -0.000000 0.000000
RightFoot -8.124199 -0.847156 22.765630
RightToeBase 21.735697 -0.000000 -0.000000
LeftUpLeg -38.528440 10.662299 -4.002612
LeftLeg 0.161387 -0.000000 -0.000000
LeftFoot -2.582312 -8.340232 -15.065150
LeftToeBase 3.310971 -0.000000 -0.000000
Spine -48.541077 0.743668 -3.500047
RightShoulder -36.397330 42.696110 -82.020022
RightArm 44.105404 -5.422059 14.918822
RightForeArm 6.612600 -0.000000 -0.046341
RightHand 9.099278 0.000000 -0.539000
RightHandThumb1 -24.326973 -0.000000 -32.862282
LeftShoulder -17.338696 -22.674282 59.060079
LeftArm 50.381917 -29.508572 -10.444748
LeftForeArm 22.341434 -0.000000 3.399034
LeftHand -24.004798 -0.000000 -2.700970
LeftHandThumb1 -26.253704 0.000000 33.147579
Head 11.091111 -4.043766 4.118115
1515
root 2.682036 32.764128 -6.912240 42.481687 4.081995 1.738184
RightUpLeg -36.717511 -19.245381 8.738146
RightLeg -3.751454 -0.000000 0.000000
RightFoot -8.134123 -0.858371 22.755310
RightToeBase 21.767414 -0.000000 -0.000000
LeftUpLeg -38.486712 10.639386 -3.991517
LeftLeg 0.176758 -0.000000 -0.000000
LeftFoot -2.555604 -8.341356 -15.055190
LeftToeBase 3.277497 -0.000000 -0.000000
Spine -48.561029 0.733746 -3.489697
RightShoulder -36.722503 43.180187 -82.594720
RightArm 44.523047 -5.592856 15.109406
RightForeArm 6.356394 -0.000000 0.243744
RightHand 8.905925 -0.000000 -0.751541
RightHandThumb1 -24.326973 -0.000000 -32.862282
LeftShoulder -17.338632 -22.832003 59.169342
LeftArm 51.006238 -29.733317 -10.570751
LeftForeArm 22.493131 -0.000000 3.636800
LeftHand -23.990499 -0.000000 -2.494696
LeftHandThumb1 -26.253704 0.000000 33.147579
Head 11.251391 -4.051674 4.125019
1516
root 2.683752 32.765461 -6.909526 42.441696 4.119314 1.748475
RightUpLeg -36.670086 -19.263592 8.720051
RightLeg -3.739259 -0.000000 0.000000
RightFoot -8.140438 -0.888807 22.774200
RightToeBase 21.695167 -0.000000 -0.000000
LeftUpLeg -38.454107 10.618341 -3.979866
LeftLeg 0.193963 -0.000000 -0.000000
LeftFoot -2.550357 -8.345018 -15.044440
LeftToeBase 3.312882 -0.000000 -0.000000
Spine -48.573975 0.742627 -3.479799
RightShoulder -37.021479 43.566439 -83.090366
RightArm 44.993839 -5.734870 15.215167
RightForeArm 6.187224 -0.000000 0.494006
RightHand 8.855246 -0.000000 -1.098960
RightHandThumb1 -24.326973 -0.000000 -32.862282
LeftShoulder -17.259243 -22.905934 59.135416
LeftArm 51.532886 -30.067044 -10.542546
LeftForeArm 22.463160 -0.000000 3.967775
LeftHand -23.939210 -0.000000 -2.455168
LeftHandThumb1 -26.253704 0.000000 33.147579
Head 11.358407 -4.089556 4.110983
1517
root 2.685166 32.766917 -6.906846 42.391968 4.157308 1.757665
RightUpLeg -36.617057 -19.296860 8.710455
RightLeg -3.725575 -0.000000 0.000000
RightFoot -8.155049 -0.905065 22.774549
RightToeBase 21.768941 -0.000000 -0.000000
LeftUpLeg -38.418275 10.617611 -3.975555
LeftLeg 0.222249 -0.000000 -0.000000
LeftFoot -2.543129 -8.395621 -15.038812
LeftToeBase 3.301773 -0.000000 -0.000000
Spine -48.581283 0.740684 -3.474812
RightShoulder -37.322963 43.987022 -83.607869
RightArm 45.383166 -5.882307 15.390480
RightForeArm 5.846757 -0.000000 0.802374
RightHand 8.612452 -0.000000 -1.322426
RightHandThumb1 -24.326973 -0.000000 -32.862282
LeftShoulder -17.175680 -22.977384 59.111956
LeftArm 52.039738 -30.370741 -10.460716
LeftForeArm 22.617266 -0.000000 4.253437
LeftHand -23.875761 -0.000000 -2.218968
LeftHandThumb1 -26.253704 0.000000 33.147579
Head 11.463213 -4.073552 4.132727
1518
root 2.685687 32.768539 -6.904147 42.344318 4.192748 1.764257
RightUpLeg -36.559482 -19.320498 8.701246
RightLeg -3.726046 -0.000000 0.000000
RightFoot -8.154803 -0.936633 22.765670
RightToeBase 21.713049 -0.000000 -0.000000
LeftUpLeg -38.374794 10.595381 -3.951115
LeftLeg 0.234057 -0.000000 -0.000000
LeftFoot -2.520290 -8.399185 -15.069918
LeftToeBase 3.294053 -0.000000 -0.000000
Spine -48.587174 0.742155 -3.459939
RightShoulder -37.591383 44.398771 -84.099008
RightArm 45.724753 -5.993503 15.581276
RightForeArm 5.527809 -0.000000 1.109373
RightHand 8.654419 -0.000000 -1.541959
RightHandThumb1 -24.326973 -0.000000 -32.862282
LeftShoulder -17.060591 -23.024141 59.001127
LeftArm 52.504505 -30.682714 -10.253130
LeftForeArm 22.619271 -0.000000 4.533056
LeftHand -23.705150 0.000000 -2.293580
LeftHandThumb1 -26.253704 0.000000 33.147579
Head 11.565183 -4.051965 4.137045
1519
root 2.689204 32.770033 -6.902365 42.306022 4.218146 1.783421
RightUpLeg -36.515785 -19.352793 8.675633
RightLeg -3.724024 -0.000000 0.000000
RightFoot -8.154763 -0.941705 22.756191
RightToeBase 21.733857 -0.000000 -0.000000
LeftUpLeg -38.336082 10.568672 -3.950672
LeftLeg 0.240862 -0.000000 -0.000000
LeftFoot -2.509251 -8.395127 -15.044982
LeftToeBase 3.287112 -0.000000 -0.000000
Spine -48.608339 0.755370 -3.468537
RightShoulder -37.716939 44.705075 -84.390291
RightArm 46.199247 -6.113757 15.494317
RightForeArm 5.339900 -0.000000 1.208310
RightHand 8.640923 -0.000000 -1.774875
RightHandThumb1 -24.326973 -0.000000 -32.862282
LeftShoulder -16.985383 -23.192665 59.031657
LeftArm 52.982603 -30.828538 -10.283321
LeftForeArm 22.918493 -0.000000 4.742901
LeftHand -23.618605 -0.000000 -1.850793
LeftHandThumb1 -26.253704 0.000000 33.147579
Head 11.664927 -4.098473 4.187931
1520
root 2.689736 32.773141 -6.900363 42.245338 4.237257 1.791144
RightUpLeg -36.445516 -19.360154 8.645757
RightLeg -3.721504 -0.000000 0.000000
RightFoot -8.162934 -0.989652 22.716532
RightToeBase 21.750596 -0.000000 -0.000000
LeftUpLeg -38.281355 10.575743 -3.948717
LeftLeg 0.250927 -0.000000 -0.000000
LeftFoot -2.464889 -8.425809 -15.057825
LeftToeBase 3.270517 -0.000000 -0.000000
Spine -48.603756 0.773589 -3.464651
RightShoulder -38.107825 45.216719 -85.045930
RightArm 46.494979 -6.396028 15.720204
RightForeArm 4.979288 -0.000000 1.451654
RightHand 8.440772 -0.000000 -1.766555
RightHandThumb1 -24.326973 -0.000000 -32.862282
LeftShoulder -16.839827 -23.189523 58.899050
LeftArm 53.378390 -31.094167 -10.021625
LeftForeArm 22.911763 -0.000000 4.930867
LeftHand -23.586022 -0.000000 -1.589055
LeftHandThumb1 -26.253704 0.000000 33.147579
Head 11.775169 -4.127627 4.223740
1521
root 2.691014 32.774652 -6.898492 42.209037 4.253790 1.803638
RightUpLeg -36.399784 -19.383627 8.628593
RightLeg -3.728731 -0.000000 0.000000
RightFoot -8.150662 -0.996824 22.747534
RightToeBase 21.703612 -0.000000 -0.000000
LeftUpLeg -38.239691 10.547760 -3.934774
LeftLeg 0.250896 -0.000000 -0.000000
LeftFoot -2.449670 -8.402768 -15.062468
LeftToeBase 3.279606 -0.000000 -0.000000
Spine -48.611877 0.777309 -3.478546
RightShoulder -38.228382 45.521616 -85.334388
RightArm 46.818814 -6.458051 15.730415
RightForeArm 4.826142 0.000000 1.623863
RightHand 8.699077 -0.000000 -1.723299
RightHandThumb1 -24.326973 -0.000000 -32.862282
LeftShoulder -16.766940 -23.235772 58.910844
LeftArm 53.776764 -31.316454 -9.961066
LeftForeArm 23.034785 -0.000000 5.153363
LeftHand -23.473959 -0.000000 -1.266932
LeftHandThumb1 -26.253704 0.000000 33.147579
Head 11.834624 -4.142096 4.342692
1522
root 2.690832 32.775936 -6.896847 42.184980 4.267305 1.800345
RightUpLeg -36.371970 -19.393875 8.630061
RightLeg -3.721103 -0.000000 0.000000
RightFoot -8.137982 -0.997945 22.791408
RightToeBase 21.685576 -0.000000 -0.000000
LeftUpLeg -38.214441 10.545716 -3.919725
LeftLeg 0.251142 -0.000000 -0.000000
LeftFoot -2.440246 -8.413355 -15.071165
LeftToeBase 3.285958 -0.000000 -0.000000
Spine -48.630303 0.787987 -3.492888
RightShoulder -38.276158 45.751504 -85.519321
RightArm 47.141887 -6.446691 15.713080
RightForeArm 4.711340 -0.000000 1.821290
RightHand 8.528341 0.000000 -1.298333
RightHandThumb1 -24.326973 -0.000000 -32.862282
LeftShoulder -16.740677 -23.382896 59.010956
LeftArm 54.237481 -31.502569 -10.142874
LeftForeArm 23.580565 -0.000000 5.381252
LeftHand -23.590074 -0.000000 -0.973341
LeftHandThumb1 -26.253704 0.000000 33.147579
Head 11.860303 -4.181281 4.524096
1523
root 2.691547 32.778127 -6.895290 42.158641 4.278599 1.805447
RightUpLeg -36.337790 -19.405340 8.619176
RightLeg -3.728143 -0.000000 0.000000
RightFoot -8.124427 -1.014196 22.757137
RightToeBase 21.695719 -0.000000 -0.000000
LeftUpLeg -38.181400 10.534543 -3.910417
LeftLeg 0.241355 -0.000000 -0.000000
LeftFoot -2.410144 -8.405234 -15.081604
LeftToeBase 3.302488 -0.000000 -0.000000
Spine -48.647302 0.808197 -3.508451
RightShoulder -38.430495 46.063403 -85.876859
RightArm 47.349580 -6.493787 15.871809
RightForeArm 4.421829 -0.000000 2.071464
RightHand 8.536192 -0.000000 -1.211460
RightHandThumb1 -24.326973 -0.000000 -32.862282
LeftShoulder -16.605907 -23.403588 58.906247
LeftArm 54.583171 -31.763776 -9.931658
LeftForeArm 23.268200 -0.000000 5.543368
LeftHand -23.709569 -0.000000 -0.594083
LeftHandThumb1 -26.253704 0.000000 33.147579
Head 11.918547 -4.221370 4.648618
1524
root 2.691759 32.780761 -6.894234 42.129658 4.280884 1.816000
RightUpLeg -36.301972 -19.412771 8.598741
RightLeg -3.733441 -0.000000 0.000000
RightFoot -8.109205 -1.027317 22.756050
RightToeBase 21.705425 -0.000000 -0.000000
LeftUpLeg -38.146197 10.532182 -3.914712
LeftLeg 0.233084 -0.000000 -0.000000
LeftFoot -2.376991 -8.407304 -15.089593
LeftToeBase 3.289262 -0.000000 -0.000000
Spine -48.657724 0.831421 -3.514936
RightShoulder -38.815803 46.511909 -86.551874
RightArm 47.468346 -6.736739 16.195950
RightForeArm 4.084141 -0.000000 2.315074
RightHand 8.324422 -0.000000 -2.114144
RightHandThumb1 -24.326973 -0.000000 -32.862282
LeftShoulder -16.553068 -23.500462 58.883009
LeftArm 54.979228 -31.984859 -10.012705
LeftForeArm 23.290412 -0.000000 5.841623
LeftHand -23.783026 -0.000000 -0.534203
LeftHandThumb1 -26.253704 0.000000 33.147579
Head 11.954183 -4.265823 4.712936
